<?xml version="1.0" encoding="UTF-8"?>
<svg width="64px" height="64px" viewBox="0 0 64 64" version="1.1" xmlns="http://www.w3.org/2000/svg" xmlns:xlink="http://www.w3.org/1999/xlink">
    <!-- Generator: Sketch 64 (93537) - https://sketch.com -->
    <title>icon-7</title>
    <desc>Created with Sketch.</desc>
    <g id="Page-1" stroke="none" stroke-width="1" fill="none" fill-rule="evenodd">
        <g id="Artboard" transform="translate(-24.000000, -347.000000)" fill-rule="nonzero">
            <g id="icon-7" transform="translate(24.000000, 347.000000)">
                <circle id="Oval" fill="#E0E0D1" cx="32" cy="32" r="32"></circle>
                <g id="Group" opacity="0.2" transform="translate(10.000000, 12.000000)" fill="#231F20">
                    <path d="M22,4 C31.9,4 40,12.1 40,22 C40,31.9 31.9,40 22,40 C12.1,40 4,31.9 4,22 C4,12.1 12.1,4 22,4 Z M22,0 C9.8,0 0,9.8 0,22 C0,34.2 9.8,44 22,44 C34.2,44 44,34.2 44,22 C44,9.8 34.2,0 22,0 L22,0 Z" id="Shape"></path>
                </g>
                <path d="M32,14 C41.9,14 50,22.1 50,32 C50,41.9 41.9,50 32,50 C22.1,50 14,41.9 14,32 C14,22.1 22.1,14 32,14 M32,10 C19.8,10 10,19.8 10,32 C10,44.2 19.8,54 32,54 C44.2,54 54,44.2 54,32 C54,19.8 44.2,10 32,10 L32,10 Z" id="Shape" fill="#C75C5C"></path>
                <g id="Group" opacity="0.2" transform="translate(30.000000, 24.000000)" fill="#231F20">
                    <g id="Path">
                        <path d="M10,20 C9.5,20 9,19.8 8.6,19.4 L0,10.8 L0,2 C0,0.9 0.9,0 2,0 C3.1,0 4,0.9 4,2 L4,9.2 L11.4,16.6 C12.2,17.4 12.2,18.6 11.4,19.4 C11,19.8 10.5,20 10,20 Z"></path>
                    </g>
                </g>
                <path d="M40,42 C39.5,42 39,41.8 38.6,41.4 L30,32.8 L30,24 C30,22.9 30.9,22 32,22 C33.1,22 34,22.9 34,24 L34,31.2 L41.4,38.6 C42.2,39.4 42.2,40.6 41.4,41.4 C41,41.8 40.5,42 40,42 Z" id="Path" fill="#4F5D73"></path>
            </g>
        </g>
    </g>
</svg>