<?xml version="1.0" encoding="UTF-8"?>
<svg width="64px" height="64px" viewBox="0 0 64 64" version="1.1" xmlns="http://www.w3.org/2000/svg" xmlns:xlink="http://www.w3.org/1999/xlink">
    <!-- Generator: Sketch 64 (93537) - https://sketch.com -->
    <title>icon-9</title>
    <desc>Created with Sketch.</desc>
    <g id="Page-1" stroke="none" stroke-width="1" fill="none" fill-rule="evenodd">
        <g id="Artboard" transform="translate(-24.000000, -137.000000)" fill-rule="nonzero">
            <g id="icon-9" transform="translate(24.000000, 137.000000)">
                <circle id="Oval" fill="#76C2AF" cx="32" cy="32" r="32"></circle>
                <g id="Group" transform="translate(13.000000, 20.000000)" fill="#4F5D73">
                    <path d="M13.1,16.7 C13.7,15.1 14.7,12.4 13.2,7.2 C11.7,2 9.5,0 6.5,0 C6.5,0 1.3,-0.3 1,7.9 C0.6,16.9 3.8,19.2 4.8,24.3 L12.3,22.2 C12.1,20 12.7,17.9 13.1,16.7 Z" id="Path"></path>
                    <path d="M13.3,25.1 L5.2,27.4 C5.6,32.7 8.2,37 12.7,35.8 C17.2,34.5 15.1,28.3 13.3,25.1 C13.3,25.1 13.3,25.1 13.3,25.1 Z" id="Path"></path>
                </g>
                <g id="Group" transform="translate(35.000000, 12.000000)" fill="#4F5D73">
                    <path d="M2.9,16.7 C2.3,15.1 1.3,12.4 2.8,7.2 C4.3,2 6.5,0 9.5,0 C9.5,0 14.7,-0.3 15,7.9 C15.4,16.9 12.2,19.2 11.2,24.3 L3.7,22.2 C3.9,20 3.3,17.9 2.9,16.7 Z" id="Path"></path>
                    <path d="M2.7,25.1 L10.8,27.4 C10.4,32.7 7.8,37 3.3,35.8 C-1.2,34.5 0.9,28.3 2.7,25.1 C2.7,25.1 2.7,25.1 2.7,25.1 Z" id="Path"></path>
                </g>
            </g>
        </g>
    </g>
</svg>