<?xml version="1.0" encoding="UTF-8"?>
<svg width="64px" height="64px" viewBox="0 0 64 64" version="1.1" xmlns="http://www.w3.org/2000/svg" xmlns:xlink="http://www.w3.org/1999/xlink">
    <!-- Generator: Sketch 64 (93537) - https://sketch.com -->
    <title>icon-2</title>
    <desc>Created with Sketch.</desc>
    <g id="Page-1" stroke="none" stroke-width="1" fill="none" fill-rule="evenodd">
        <g id="Artboard" transform="translate(-24.000000, -835.000000)" fill-rule="nonzero">
            <g id="icon-2" transform="translate(24.000000, 835.000000)">
                <circle id="Oval" fill="#77B3D4" cx="32" cy="32" r="32"></circle>
                <g id="Group" transform="translate(12.000000, 8.000000)">
                    <g opacity="0.2" transform="translate(0.000000, 17.000000)" fill="#231F20" id="Path">
                        <path d="M0,0 L0,25 C0,27.2 1.8,29 4,29 L36,29 C38.2,29 40,27.2 40,25 L40,0 L0,0 Z"></path>
                    </g>
                    <path d="M0,15 L0,40 C0,42.2 1.8,44 4,44 L36,44 C38.2,44 40,42.2 40,40 L40,15 L0,15 Z" id="Path" fill="#FFFFFF"></path>
                    <g opacity="0.2" transform="translate(0.000000, 6.000000)" fill="#231F20" id="Path">
                        <path d="M36,0 L4,0 C1.8,0 0,1.8 0,4 L0,11 L40,11 L40,4 C40,1.8 38.2,0 36,0 Z"></path>
                    </g>
                    <path d="M36,4 L4,4 C1.8,4 0,5.8 0,8 L0,15 L40,15 L40,8 C40,5.8 38.2,4 36,4 Z" id="Path" fill="#C75C5C"></path>
                    <path d="M20,40 C18.9,40 18,39.1 18,38 C18,32.5 19.8,28.5 21.5,26 L15,26 C13.9,26 13,25.1 13,24 C13,22.9 13.9,22 15,22 L26,22 C26.9,22 27.6,22.6 27.9,23.4 C28.2,24.2 27.9,25.1 27.2,25.6 C27,25.8 22,29.5 22,38 C22,39.1 21.1,40 20,40 Z" id="Path" fill="#4F5D73"></path>
                    <g opacity="0.2" transform="translate(6.000000, 2.000000)" fill="#231F20" id="Path">
                        <path d="M2,11 C0.9,11 0,10.1 0,9 L0,2 C0,0.9 0.9,0 2,0 L2,0 C3.1,0 4,0.9 4,2 L4,9 C4,10.1 3.1,11 2,11 L2,11 Z"></path>
                    </g>
                    <g opacity="0.2" transform="translate(31.000000, 2.000000)" fill="#231F20" id="Path">
                        <path d="M2,11 C0.9,11 0,10.1 0,9 L0,2 C0,0.9 0.9,0 2,0 L2,0 C3.1,0 4,0.9 4,2 L4,9 C4,10.1 3.1,11 2,11 L2,11 Z"></path>
                    </g>
                    <path d="M8,11 C6.9,11 6,10.1 6,9 L6,2 C6,0.9 6.9,0 8,0 L8,0 C9.1,0 10,0.9 10,2 L10,9 C10,10.1 9.1,11 8,11 L8,11 Z" id="Path" fill="#E0E0D1"></path>
                    <path d="M33,11 C31.9,11 31,10.1 31,9 L31,2 C31,0.9 31.9,0 33,0 L33,0 C34.1,0 35,0.9 35,2 L35,9 C35,10.1 34.1,11 33,11 L33,11 Z" id="Path" fill="#E0E0D1"></path>
                </g>
            </g>
        </g>
    </g>
</svg>