<?xml version="1.0" encoding="UTF-8"?>
<svg width="64px" height="64px" viewBox="0 0 64 64" version="1.1" xmlns="http://www.w3.org/2000/svg" xmlns:xlink="http://www.w3.org/1999/xlink">
    <!-- Generator: Sketch 64 (93537) - https://sketch.com -->
    <title>icon-8</title>
    <desc>Created with Sketch.</desc>
    <g id="Page-1" stroke="none" stroke-width="1" fill="none" fill-rule="evenodd">
        <g id="Artboard" transform="translate(-24.000000, -242.000000)" fill-rule="nonzero">
            <g id="icon-8" transform="translate(24.000000, 242.000000)">
                <circle id="Oval" fill="#4F5D73" cx="32" cy="32" r="32"></circle>
                <path d="M16,36 C16,37.1 15.1,38 14,38 L14,38 C12.9,38 12,37.1 12,36 L12,34 C12,32.9 12.9,32 14,32 L14,32 C15.1,32 16,32.9 16,34 L16,36 Z" id="Path" fill="#C75C5C"></path>
                <path d="M24,28 C24,29.1 23.1,30 22,30 L22,30 C20.9,30 20,29.1 20,28 L20,26 C20,24.9 20.9,24 22,24 L22,24 C23.1,24 24,24.9 24,26 L24,28 Z" id="Path" fill="#F5CF87"></path>
                <path d="M44,28 C44,29.1 43.1,30 42,30 L42,30 C40.9,30 40,29.1 40,28 L40,26 C40,24.9 40.9,24 42,24 L42,24 C43.1,24 44,24.9 44,26 L44,28 Z" id="Path" fill="#F5CF87"></path>
                <path d="M48,36 C48,37.1 48.9,38 50,38 L50,38 C51.1,38 52,37.1 52,36 L52,34 C52,32.9 51.1,32 50,32 L50,32 C48.9,32 48,32.9 48,34 L48,36 Z" id="Path" fill="#76C2AF"></path>
                <g id="Group" opacity="0.2" transform="translate(12.000000, 23.000000)" fill="#231F20">
                    <path d="M20,9.6 L37,14.4 C39.9,15.3 40,14 40,12 L40,13.2 C40,11.2 40.1,9.8 38.2,8.7 L20,0 L1.8,8.7 C0,9.8 0,11.2 0,13.2 L0,12 C0,14 0.1,15.3 3,14.4 L20,9.6 Z" id="Path"></path>
                </g>
                <path d="M32,30.6 L49,35.4 C51.9,36.3 52,35 52,33 L52,34.2 C52,32.2 52.1,30.8 50.2,29.7 L32,21 L13.8,29.7 C12,30.8 12,32.2 12,34.2 L12,33 C12,35 12.1,36.3 15,35.4 L32,30.6 Z" id="Path" fill="#E0E0D1"></path>
                <g id="Group" transform="translate(27.000000, 21.000000)">
                    <path d="M25,12.4 C25,12.4 25,12.4 25,12.4 L25,12 C25,12.1 25,12.2 25,12.4 Z" id="Path" fill="#E0E0D1"></path>
                    <path d="M25,12.5 L25,13.2 C25,12.9 25,12.7 25,12.5 Z" id="Path" fill="#E0E0D1"></path>
                    <g opacity="0.2" fill="#231F20" id="Path">
                        <polygon points="5 0 0 2.4 0.4 10.9 5 9.6 9.6 10.9 10 2.4"></polygon>
                    </g>
                </g>
                <path d="M35,43.6 C35,45.2 34.7,46.5 33,46.5 L31,46.5 C29.3,46.5 29,45.2 29,43.6 L28,16.7 C28,15.1 30.3,9.9 32,9.9 L32,9.9 C33.7,9.9 36,15.1 36,16.7 L35,43.6 Z" id="Path" fill="#E0E0D1"></path>
                <g id="Group" opacity="0.2" transform="translate(19.000000, 42.000000)" fill="#231F20">
                    <path d="M24,6.8 L13,0 L2,6.8 C0.8,7.7 1,9.1 1,10.7 C1,10.7 1.2,12.5 3,11.8 L13,8 L23,11.9 C24.8,12.6 25,10.8 25,10.8 C25,9.1 25.1,7.8 24,6.8 Z" id="Path"></path>
                </g>
                <path d="M43,46.8 L32,40 L21,46.8 C19.8,47.7 20,49.1 20,50.7 C20,50.7 20.2,52.5 22,51.8 L32,48 L42,51.9 C43.8,52.6 44,50.8 44,50.8 C44,49.1 44.1,47.8 43,46.8 Z" id="Path" fill="#E0E0D1"></path>
                <g id="Group" opacity="0.2" transform="translate(30.000000, 44.000000)" fill="#231F20">
                    <path d="M4,7 C4,8.1 3.1,9 2,9 L2,9 C0.9,9 0,8.1 0,7 L0,2 C0,0.9 0.9,0 2,0 L2,0 C3.1,0 4,0.9 4,2 L4,7 Z" id="Path"></path>
                </g>
                <path d="M34,49 C34,50.1 33.1,51 32,51 L32,51 C30.9,51 30,50.1 30,49 L30,44 C30,42.9 30.9,42 32,42 L32,42 C33.1,42 34,42.9 34,44 L34,49 Z" id="Path" fill="#E0E0D1"></path>
                <path d="M32,16 C33.2,16 34.2,14.8 34.7,13 C33.9,11.4 32.8,10 32,10 C31.2,10 30.1,11.4 29.3,13 C29.8,14.8 30.8,16 32,16 Z" id="Path" fill="#77B3D4"></path>
            </g>
        </g>
    </g>
</svg>