<?xml version="1.0" encoding="UTF-8"?>
<svg width="64px" height="64px" viewBox="0 0 64 64" version="1.1" xmlns="http://www.w3.org/2000/svg" xmlns:xlink="http://www.w3.org/1999/xlink">
    <!-- Generator: Sketch 64 (93537) - https://sketch.com -->
    <title>icon-6</title>
    <desc>Created with Sketch.</desc>
    <g id="Page-1" stroke="none" stroke-width="1" fill="none" fill-rule="evenodd">
        <g id="Artboard" transform="translate(-24.000000, -440.000000)" fill-rule="nonzero">
            <g id="icon-6" transform="translate(24.000000, 440.000000)">
                <circle id="Oval" fill="#C75C5C" cx="32" cy="32" r="32"></circle>
                <g id="Group" opacity="0.2" transform="translate(16.000000, 16.000000)" fill="#231F20">
                    <path d="M30,34 L28,34 C28,33.3 28,32 28,30 C28,25.5 25,22.6 25,22.6 C25,22.6 22,19.8 21.1,18.9 C20.2,18 21.1,17.1 21.1,17.1 C21.1,17.1 22.4,15.8 25.3,13.1 C28.1,10.4 28,6.4 28,6.4 L28,1.3 L16,0.3 L4,1.3 L4,6.4 C4,6.4 3.9,10.3 6.7,13.1 C9.5,15.8 10.9,17.1 10.9,17.1 C10.9,17.1 11.8,18 10.9,18.9 C10,19.8 7,22.6 7,22.6 C7,22.6 4,25.4 4,30 C4,32 4,33.3 4,34 L2,34 C0.9,34 0,34.9 0,36 C0,37.1 0.9,38 2,38 L30,38 C31.1,38 32,37.1 32,36 C32,34.9 31.1,34 30,34 Z" id="Path"></path>
                </g>
                <path d="M41,36.6 C41,36.6 38,33.8 37.1,32.9 C36.2,32 37.1,31.1 37.1,31.1 C37.1,31.1 38.4,29.8 41.3,27.1 C44.1,24.4 44,20.4 44,20.4 L44,15.3 L32,14.3 L20,15.3 L20,20.4 C20,20.4 19.9,24.3 22.7,27.1 C25.5,29.8 26.9,31.1 26.9,31.1 C26.9,31.1 27.8,32 26.9,32.9 C26,33.8 23,36.6 23,36.6 C23,36.6 20,39.4 20,44 C20,48.5 20,49.1 20,49.1 L32,49.1 L44,49.1 C44,49.1 44,48.6 44,44 C44,39.5 41,36.6 41,36.6 Z" id="Path" fill="#FFFFFF"></path>
                <path d="M31,43 L31,32 C31,29.9 30,28.6 29.7,28.3 L25.5,24.3 C24,22.9 24,20.6 24,20.6 L32,20.6 L40,20.6 C40,20.6 40,20.6 40,20.6 C40,20.6 40,22.9 38.5,24.3 L34.3,28.3 C33.9,28.6 33,29.9 33,32 L33,43 L31,43 Z" id="Path" fill="#4F5D73"></path>
                <g id="Group" opacity="0.3" transform="translate(16.000000, 14.000000)" fill="#231F20">
                    <path d="M32,2 C32,3.1 31.1,4 30,4 L2,4 C0.9,4 0,3.1 0,2 L0,2 C0,0.9 0.9,0 2,0 L30,0 C31.1,0 32,0.9 32,2 L32,2 Z" id="Path"></path>
                </g>
                <path d="M48,14 C48,15.1 47.1,16 46,16 L18,16 C16.9,16 16,15.1 16,14 L16,14 C16,12.9 16.9,12 18,12 L46,12 C47.1,12 48,12.9 48,14 L48,14 Z" id="Path" fill="#F5CF87"></path>
                <path d="M48,50 C48,51.1 47.1,52 46,52 L18,52 C16.9,52 16,51.1 16,50 L16,50 C16,48.9 16.9,48 18,48 L46,48 C47.1,48 48,48.9 48,50 L48,50 Z" id="Path" fill="#F5CF87"></path>
                <polygon id="Path" fill="#4F5D73" points="41 48 41 48 23 48 23 48 32 40"></polygon>
            </g>
        </g>
    </g>
</svg>