<?xml version="1.0" encoding="UTF-8"?>
<svg width="64px" height="64px" viewBox="0 0 64 64" version="1.1" xmlns="http://www.w3.org/2000/svg" xmlns:xlink="http://www.w3.org/1999/xlink">
    <!-- Generator: Sketch 64 (93537) - https://sketch.com -->
    <title>icon-10</title>
    <desc>Created with Sketch.</desc>
    <g id="Page-1" stroke="none" stroke-width="1" fill="none" fill-rule="evenodd">
        <g id="Artboard" transform="translate(-24.000000, -31.000000)" fill-rule="nonzero">
            <g id="icon-10" transform="translate(24.000000, 31.000000)">
                <circle id="Oval" fill="#C75C5C" cx="32" cy="32" r="32"></circle>
                <g id="Group" opacity="0.2" transform="translate(10.000000, 12.000000)" fill="#231F20">
                    <g id="Path">
                        <path d="M42.9,16.1 C42.6,15.1 41.8,14.5 40.8,14.3 L29.5,12.7 L24.4,2.4 C24,1.5 23,0.9 22,0.9 C21,0.9 20.1,1.5 19.6,2.4 L14.5,12.7 L3.2,14.3 C2.2,14.4 1.4,15.1 1.1,16.1 C0.8,17.1 1,18.1 1.8,18.8 L10,26.8 L8.1,38 C7.9,39 8.3,40 9.1,40.6 C9.6,40.9 10.1,41.1 10.6,41.1 C11,41.1 11.4,41 11.8,40.8 L22,35.5 L32.1,40.8 C32.5,41 32.9,41.1 33.3,41.1 C33.8,41.1 34.4,40.9 34.8,40.6 C35.6,40 36,39 35.8,38 L34,26.7 L42.2,18.7 C42.9,18.1 43.2,17 42.9,16.1 Z"></path>
                    </g>
                </g>
                <path d="M52.9,26.1 C52.6,25.1 51.8,24.5 50.8,24.3 L39.5,22.7 L34.4,12.4 C34,11.5 33,10.9 32,10.9 C31,10.9 30.1,11.5 29.6,12.4 L24.5,22.7 L13.2,24.3 C12.2,24.4 11.4,25.1 11.1,26.1 C10.8,27.1 11,28.1 11.8,28.8 L20,36.8 L18.1,48 C17.9,49 18.3,50 19.1,50.6 C19.6,50.9 20.1,51.1 20.6,51.1 C21,51.1 21.4,51 21.8,50.8 L32,45.5 L42.1,50.8 C42.5,51 42.9,51.1 43.3,51.1 C43.8,51.1 44.4,50.9 44.8,50.6 C45.6,50 46,49 45.8,48 L44,36.7 L52.2,28.7 C52.9,28.1 53.2,27 52.9,26.1 Z" id="Path" fill="#F5CF87"></path>
            </g>
        </g>
    </g>
</svg>